<svg width="143" height="225" viewBox="0 0 143 225" fill="none" xmlns="http://www.w3.org/2000/svg">
<path d="M63.5 225C61.8333 225 60.4167 224.417 59.25 223.25C58.0833 222.083 57.5 220.667 57.5 219V201.5C45.1667 200.333 34.75 197.417 26.25 192.75C17.75 187.917 11.3333 182.167 7 175.5C2.66667 168.667 0.333334 161.583 5.43892e-07 154.25C5.43892e-07 152.75 0.500001 151.5 1.5 150.5C2.66667 149.5 4 149 5.5 149H27.75C29.75 149 31.3333 149.5 32.5 150.5C33.6667 151.333 34.5833 152.417 35.25 153.75C36.4167 156.917 38.3333 160.083 41 163.25C43.8333 166.25 47.75 168.75 52.75 170.75C57.75 172.75 64 173.75 71.5 173.75C83.5 173.75 92.4167 171.75 98.25 167.75C104.083 163.75 107 158.333 107 151.5C107 146.667 105.417 142.833 102.25 140C99.25 137 94.4167 134.333 87.75 132C81.0833 129.5 72.3333 126.917 61.5 124.25C49.1667 121.25 38.75 117.667 30.25 113.5C21.75 109.167 15.3333 103.75 11 97.25C6.83333 90.75 4.75 82.5 4.75 72.5C4.75 59.6667 9.41667 48.75 18.75 39.75C28.0833 30.75 41 25.25 57.5 23.25V5.99999C57.5 4.33333 58.0833 2.91666 59.25 1.74999C60.4167 0.583328 61.8333 -2.98023e-06 63.5 -2.98023e-06H78.75C80.4167 -2.98023e-06 81.8333 0.583328 83 1.74999C84.1667 2.91666 84.75 4.33333 84.75 5.99999V23.75C96.0833 25.4167 105.583 28.75 113.25 33.75C120.917 38.75 126.75 44.5 130.75 51C134.75 57.3333 136.833 63.5 137 69.5C137 70.8333 136.5 72.0833 135.5 73.25C134.667 74.25 133.417 74.75 131.75 74.75H108.5C107 74.75 105.583 74.4167 104.25 73.75C102.917 73.0833 101.833 71.8333 101 70C100.167 64.8333 97 60.4167 91.5 56.75C86 53.0833 78.8333 51.25 70 51.25C61 51.25 53.75 52.9167 48.25 56.25C42.9167 59.5833 40.25 64.75 40.25 71.75C40.25 76.4167 41.5833 80.3333 44.25 83.5C46.9167 86.5 51.25 89.1667 57.25 91.5C63.4167 93.8333 71.5833 96.3333 81.75 99C95.9167 102.167 107.417 105.833 116.25 110C125.25 114.167 131.833 119.5 136 126C140.333 132.333 142.5 140.417 142.5 150.25C142.5 159.917 140.083 168.417 135.25 175.75C130.583 182.917 123.917 188.75 115.25 193.25C106.583 197.583 96.4167 200.417 84.75 201.75V219C84.75 220.667 84.1667 222.083 83 223.25C81.8333 224.417 80.4167 225 78.75 225H63.5Z" fill="white"/>
</svg>
