<svg width="167" height="177" viewBox="0 0 167 177" fill="none" xmlns="http://www.w3.org/2000/svg">
<g clip-path="url(#clip0_228_85)" filter="url(#filter0_d_228_85)">
<path d="M128.375 161.959C134.486 161.959 140.347 159.362 144.668 154.74C148.989 150.118 151.417 143.849 151.417 137.313C151.417 130.776 148.989 124.508 144.668 119.886C140.347 115.264 134.486 112.667 128.375 112.667H111.917V161.959H128.375Z" fill="white"/>
<path d="M4.9375 89.7812H51.0208V139.073H4.9375" fill="white"/>
<path d="M85.5833 49.2917H19.75C17.131 49.2917 14.6192 48.1788 12.7673 46.198C10.9154 44.2171 9.875 41.5305 9.875 38.7292V10.5625C9.875 7.76115 10.9154 5.07454 12.7673 3.09368C14.6192 1.11283 17.131 0 19.75 0L85.5833 0C88.2024 0 90.7141 1.11283 92.566 3.09368C94.4179 5.07454 95.4583 7.76115 95.4583 10.5625V38.7292C95.4583 41.5305 94.4179 44.2171 92.566 46.198C90.7141 48.1788 88.2024 49.2917 85.5833 49.2917ZM23.0417 35.2083H82.2917V14.0833H23.0417V35.2083Z" fill="white"/>
<path d="M92.1667 169H9.875C7.25599 169 4.74424 167.887 2.89232 165.906C1.0404 163.925 0 161.239 0 158.438L0 80.5567C0.000843329 76.1253 1.30449 71.8064 3.72647 68.2112C6.14845 64.6159 9.56611 61.9264 13.4958 60.5231L19.75 58.305V42.25H32.9167V63.375C32.9179 64.8556 32.4828 66.2989 31.6733 67.4998C30.8637 68.7008 29.7208 69.5982 28.4071 70.0646L17.6762 73.9375C16.3731 74.4 15.2378 75.2868 14.4292 76.4737C13.6206 77.6606 13.1792 79.0881 13.1667 80.5567V154.917H92.1667V169Z" fill="white"/>
<path d="M105.334 116.188H92.167V80.5567C92.1545 79.0881 91.7131 77.6606 90.9044 76.4737C90.0958 75.2868 88.9605 74.4 87.6574 73.9375L76.9266 70.0646C75.6128 69.5982 74.47 68.7008 73.6604 67.4998C72.8508 66.2989 72.4157 64.8556 72.417 63.375V42.25H85.5837V58.305L91.8378 60.5231C95.7675 61.9264 99.1852 64.6159 101.607 68.2112C104.029 71.8064 105.333 76.1253 105.334 80.5567V116.188Z" fill="white"/>
<path d="M128.375 169H95.458C87.601 169 80.0657 165.661 74.51 159.719C68.9542 153.776 65.833 145.717 65.833 137.312C65.833 128.908 68.9542 120.849 74.51 114.906C80.0657 108.963 87.601 105.625 95.458 105.625H128.375C136.232 105.625 143.767 108.963 149.323 114.906C154.878 120.849 158 128.908 158 137.312C158 145.717 154.878 153.776 149.323 159.719C143.767 165.661 136.232 169 128.375 169ZM95.458 119.708C91.093 119.708 86.9067 121.563 83.8202 124.864C80.7337 128.166 78.9997 132.644 78.9997 137.312C78.9997 141.981 80.7337 146.459 83.8202 149.761C86.9067 153.062 91.093 154.917 95.458 154.917H128.375C132.74 154.917 136.926 153.062 140.012 149.761C143.099 146.459 144.833 141.981 144.833 137.312C144.833 132.644 143.099 128.166 140.012 124.864C136.926 121.563 132.74 119.708 128.375 119.708H95.458Z" fill="white"/>
</g>
<defs>
<filter id="filter0_d_228_85" x="0" y="0" width="167" height="177" filterUnits="userSpaceOnUse" color-interpolation-filters="sRGB">
<feFlood flood-opacity="0" result="BackgroundImageFix"/>
<feColorMatrix in="SourceAlpha" type="matrix" values="0 0 0 0 0 0 0 0 0 0 0 0 0 0 0 0 0 0 127 0" result="hardAlpha"/>
<feOffset dx="5" dy="4"/>
<feGaussianBlur stdDeviation="2"/>
<feComposite in2="hardAlpha" operator="out"/>
<feColorMatrix type="matrix" values="0 0 0 0 0 0 0 0 0 0 0 0 0 0 0 0 0 0 0.25 0"/>
<feBlend mode="normal" in2="BackgroundImageFix" result="effect1_dropShadow_228_85"/>
<feBlend mode="normal" in="SourceGraphic" in2="effect1_dropShadow_228_85" result="shape"/>
</filter>
<clipPath id="clip0_228_85">
<rect width="158" height="169" fill="white"/>
</clipPath>
</defs>
</svg>
