<svg width="74" height="79" viewBox="0 0 74 79" fill="none" xmlns="http://www.w3.org/2000/svg">
<path d="M64.75 32.917C64.75 55.9587 37 75.7087 37 75.7087C37 75.7087 9.25 55.9587 9.25 32.917C9.25 25.06 12.1737 17.5247 17.3778 11.969C22.5819 6.41319 29.6402 3.29199 37 3.29199C44.3598 3.29199 51.4181 6.41319 56.6222 11.969C61.8263 17.5247 64.75 25.06 64.75 32.917Z" stroke="#1E1E1E" stroke-width="4" stroke-linecap="round" stroke-linejoin="round"/>
<path d="M37 42.792C42.1086 42.792 46.25 38.3708 46.25 32.917C46.25 27.4632 42.1086 23.042 37 23.042C31.8914 23.042 27.75 27.4632 27.75 32.917C27.75 38.3708 31.8914 42.792 37 42.792Z" stroke="#1E1E1E" stroke-width="4" stroke-linecap="round" stroke-linejoin="round"/>
</svg>
