<svg width="66" height="75" viewBox="0 0 66 75" fill="none" xmlns="http://www.w3.org/2000/svg">
<path d="M41.3874 15.625C44.0735 16.2205 46.542 17.7133 48.4771 19.9123C50.4122 22.1113 51.7259 24.9165 52.2499 27.9687M41.3874 3.125C46.9679 3.82949 52.1718 6.6693 56.1446 11.1781C60.1174 15.687 62.623 21.5969 63.2499 27.9375M60.4999 52.875V62.25C60.503 63.1203 60.3462 63.9818 60.0393 64.7792C59.7325 65.5766 59.2825 66.2925 58.7182 66.8808C58.1538 67.4692 57.4875 67.9171 56.762 68.196C56.0365 68.4748 55.2677 68.5783 54.5049 68.5C46.0427 67.4551 37.9142 64.1692 30.7724 58.9063C24.128 54.1083 18.4946 47.7068 14.2724 40.1563C9.62488 32.0038 6.73261 22.7219 5.82994 13.0625C5.76122 12.1983 5.85159 11.3274 6.09531 10.5051C6.33903 9.68278 6.73076 8.92715 7.24554 8.28632C7.76033 7.64548 8.3869 7.13347 9.08536 6.78288C9.78382 6.4323 10.5389 6.25082 11.3024 6.25H19.5524C20.887 6.23507 22.1809 6.77212 23.1928 7.76104C24.2047 8.74996 24.8657 10.1233 25.0524 11.625C25.4007 14.6252 26.0464 17.571 26.9774 20.4063C27.3474 21.5248 27.4275 22.7404 27.2082 23.909C26.9889 25.0776 26.4793 26.1503 25.7399 27L22.2474 30.9687C26.1622 38.7923 31.8627 45.2701 38.7474 49.7187L42.2399 45.75C42.9876 44.9098 43.9316 44.3308 44.96 44.0815C45.9884 43.8323 47.0581 43.9233 48.0424 44.3437C50.5374 45.4017 53.1298 46.1356 55.7699 46.5313C57.1058 46.7454 58.3258 47.51 59.1979 48.6797C60.07 49.8493 60.5334 51.3424 60.4999 52.875Z" stroke="#1E1E1E" stroke-width="4" stroke-linecap="round" stroke-linejoin="round"/>
</svg>
