<svg width="63" height="70" viewBox="0 0 63 70" fill="none" xmlns="http://www.w3.org/2000/svg">
<path d="M38.3874 14.625C41.0735 15.2205 43.542 16.7133 45.4771 18.9123C47.4122 21.1113 48.7259 23.9165 49.2499 26.9687M38.3874 2.125C43.9679 2.82949 49.1718 5.6693 53.1446 10.1781C57.1174 14.687 59.623 20.5969 60.2499 26.9375M57.4999 51.875V61.25C57.503 62.1203 57.3462 62.9818 57.0393 63.7792C56.7325 64.5766 56.2825 65.2925 55.7182 65.8808C55.1538 66.4692 54.4875 66.9171 53.762 67.196C53.0365 67.4748 52.2677 67.5783 51.5049 67.5C43.0427 66.4551 34.9142 63.1692 27.7724 57.9063C21.128 53.1083 15.4946 46.7068 11.2724 39.1563C6.62488 31.0038 3.73261 21.7219 2.82994 12.0625C2.76122 11.1983 2.85159 10.3274 3.09531 9.50508C3.33903 8.68278 3.73076 7.92715 4.24554 7.28632C4.76033 6.64548 5.3869 6.13347 6.08536 5.78288C6.78382 5.4323 7.53887 5.25082 8.30244 5.25H16.5524C17.887 5.23507 19.1809 5.77212 20.1928 6.76104C21.2047 7.74996 21.8657 9.12327 22.0524 10.625C22.4007 13.6252 23.0464 16.571 23.9774 19.4063C24.3474 20.5248 24.4275 21.7404 24.2082 22.909C23.9889 24.0776 23.4793 25.1503 22.7399 26L19.2474 29.9687C23.1622 37.7923 28.8627 44.2701 35.7474 48.7187L39.2399 44.75C39.9876 43.9098 40.9316 43.3308 41.96 43.0815C42.9884 42.8323 44.0581 42.9233 45.0424 43.3437C47.5374 44.4017 50.1298 45.1356 52.7699 45.5313C54.1058 45.7454 55.3258 46.51 56.1979 47.6797C57.07 48.8493 57.5334 50.3424 57.4999 51.875Z" stroke="#1E1E1E" stroke-width="4" stroke-linecap="round" stroke-linejoin="round"/>
</svg>
